<?xml version="1.0" encoding="UTF-8" standalone="no"?>
<!-- Created with Inkscape (http://www.inkscape.org/) -->
<svg xmlns:rdf="http://www.w3.org/1999/02/22-rdf-syntax-ns#" xmlns="http://www.w3.org/2000/svg" xmlns:i="http://ns.adobe.com/AdobeIllustrator/10.0/" xmlns:cc="http://web.resource.org/cc/" xmlns:xlink="http://www.w3.org/1999/xlink" xmlns:a="http://ns.adobe.com/AdobeSVGViewerExtensions/3.0/" xmlns:dc="http://purl.org/dc/elements/1.1/" xmlns:svg="http://www.w3.org/2000/svg" xmlns:inkscape="http://www.inkscape.org/namespaces/inkscape" xmlns:sodipodi="http://sodipodi.sourceforge.net/DTD/sodipodi-0.dtd" xmlns:ns1="http://sozi.baierouge.fr" id="svg2" version="1.1" viewBox="0 0 499.99999 500.00001" inkscape:version="0.91 r13725">
  <title id="title3861">Hotel has gym</title>
  <g id="Layer_1" transform="translate(22.606 22.606)">
    <path id="path13" style="fill-rule:evenodd;stroke:#000000;stroke-width:6.7782;fill:#ffffff" d="m227.39-19.217h-227.09c-10.781 0-19.521 8.7401-19.521 19.521v454.18c0 10.78 8.7401 19.521 19.521 19.521h454.18c10.781 0 19.521-8.7411 19.521-19.521v-454.18c0-10.781-8.7401-19.521-19.521-19.521h-227.09z"/>
    <g id="g3079" transform="matrix(1.0845 0 0 1.0845 -18.977 -42.339)">
      <path id="path109" style="fill-rule:evenodd;fill:#000000" d="m171.3 414.43v-145.95c-8.461 9.684-16.381 17.783-23.904 24.443-7.561 6.552-13.356 12.024-21.133 15.156-8.063 3.132-19.295 6.12-26.063 3.276-6.769-3.097-11.088-8.856-14.076-21.168-2.952-12.528-3.528-37.009-3.815-52.633-0.469-15.731-3.492-32.399 1.619-40.14 5.148-7.704 23.112-9.144 28.764-5.436 5.473 3.744 3.313 16.02 4.357 27.684 0.936 11.7 1.475 25.344 1.619 41.76 5.939-6.12 12.133-12.132 18.973-18.432 6.84-6.336 12.779-15.156 21.707-18.972 8.82-3.816 19.908-5.04 30.924-3.816 10.98 1.224 22.824 10.62 34.164 10.836 11.232-0.036 22.608-7.164 32.58-10.296 9.721-3.096 15.66 4.104 26.028-8.136 10.404-12.456 25.849-47.664 35.784-65.628 9.72-18.108 14.58-35.28 22.788-41.796 8.172-6.372 22.5-2.736 26.063 3.276 3.349 5.832 4.356 10.944-5.436 32.004-9.972 21.204-39.78 72.756-53.172 93.852-13.428 20.809-22.104 31.068-26.568 30.925v149.18c-37.044 0.001-74.124 0.001-111.2 0.001z"/>
      <path id="path111" style="fill-rule:evenodd;fill:#000000" d="m230.96 121.4c23.946 0 43.38 19.45 43.38 43.416 0 23.965-19.434 43.416-43.38 43.416-23.945 0-43.38-19.451-43.38-43.416 0-23.966 19.435-43.416 43.38-43.416"/>
      <path id="path113" style="fill-rule:evenodd;fill:#000000" d="m58.977 203.4v7.596h71.063v-7.596h-71.063z"/>
      <path id="path115" style="fill-rule:evenodd;fill:#000000" d="m132.96 181.69c-4.896 0-8.892 3.96-8.892 8.856v32.184c0 4.896 3.996 8.892 8.892 8.892h3.96c4.896 0 8.856-3.996 8.856-8.892v-32.184c0-4.896-3.96-8.856-8.856-8.856h-3.96z"/>
      <path id="path117" style="fill-rule:evenodd;fill:#000000" d="m61.893 181.69c-4.896 0-8.893 3.96-8.893 8.856v32.184c0 4.896 3.996 8.892 8.893 8.892h3.959c4.896 0 8.856-3.996 8.856-8.892v-32.184c0-4.896-3.96-8.856-8.856-8.856h-3.959z"/>
      <path id="path119" style="fill-rule:evenodd;fill:#000000" d="m315.84 102.49-3.023 6.984 65.268 28.116 3.024-6.984-65.269-28.116z"/>
      <path id="path121" style="fill-rule:evenodd;fill:#000000" d="m392.34 111.81c-4.5-1.908-9.72 0.144-11.664 4.644-4.212 9.864-8.46 19.692-12.708 29.556-1.943 4.5 0.145 9.72 4.645 11.664 1.188 0.504 2.412 1.044 3.636 1.548 4.5 1.944 9.72-0.144 11.628-4.644 4.248-9.828 8.496-19.692 12.744-29.52 1.944-4.5-0.144-9.72-4.644-11.664-1.189-0.54-2.412-1.044-3.637-1.584z"/>
      <path id="path123" style="fill-rule:evenodd;fill:#000000" d="m327.07 83.733c-4.5-1.944-9.72 0.108-11.664 4.608-4.212 9.864-8.46 19.692-12.708 29.556-1.944 4.5 0.144 9.72 4.644 11.664 1.188 0.504 2.412 1.044 3.637 1.548 4.5 1.944 9.72-0.144 11.628-4.608 4.248-9.864 8.496-19.728 12.744-29.556 1.943-4.5-0.145-9.72-4.645-11.664-1.187-0.504-2.412-1.044-3.636-1.548z"/>
    </g>
  </g>
  <metadata>
    <rdf:RDF>
      <cc:Work>
        <dc:format>image/svg+xml</dc:format>
        <dc:type rdf:resource="http://purl.org/dc/dcmitype/StillImage"/>
        <cc:license rdf:resource="http://creativecommons.org/licenses/publicdomain/"/>
        <dc:publisher>
          <cc:Agent rdf:about="http://openclipart.org/">
            <dc:title>Openclipart</dc:title>
          </cc:Agent>
        </dc:publisher>
        <dc:title>Hotel Icon Has Gym</dc:title>
        <dc:date>2010-04-23T19:42:15</dc:date>
        <dc:description>Hotel Icons. Originally done for a request, this set has been re-mixed to simple black and white versions. </dc:description>
        <dc:source>https://openclipart.org/detail/50431/hotel-icon-has-gym-by-gerald_g</dc:source>
        <dc:creator>
          <cc:Agent>
            <dc:title>Gerald_G</dc:title>
          </cc:Agent>
        </dc:creator>
        <dc:subject>
          <rdf:Bag>
            <rdf:li>gym</rdf:li>
            <rdf:li>hotel</rdf:li>
            <rdf:li>icon</rdf:li>
            <rdf:li>request+completed</rdf:li>
            <rdf:li>services</rdf:li>
            <rdf:li>source+wiki</rdf:li>
            <rdf:li>weights</rdf:li>
          </rdf:Bag>
        </dc:subject>
      </cc:Work>
      <cc:License rdf:about="http://creativecommons.org/licenses/publicdomain/">
        <cc:permits rdf:resource="http://creativecommons.org/ns#Reproduction"/>
        <cc:permits rdf:resource="http://creativecommons.org/ns#Distribution"/>
        <cc:permits rdf:resource="http://creativecommons.org/ns#DerivativeWorks"/>
      </cc:License>
    </rdf:RDF>
  </metadata>
</svg>
